<?xml version="1.0" encoding="UTF-8"?>
<svg id="Layer_1" data-name="Layer 1" xmlns="http://www.w3.org/2000/svg" viewBox="0 0 479 435">
  <defs>
    <style>
      .cls-1 {
        font-size: 35.39px;
      }

      .cls-2 {
        font-family: CherryBombOne-Regular, 'Cherry Bomb One';
      }

      .cls-3, .cls-4, .cls-5, .cls-6, .cls-7, .cls-8, .cls-9 {
        stroke: #231f20;
        stroke-linecap: round;
        stroke-miterlimit: 10;
      }

      .cls-3, .cls-4, .cls-5, .cls-6, .cls-8, .cls-9 {
        fill: #fff;
      }

      .cls-3, .cls-5 {
        stroke-width: 4px;
      }

      .cls-10 {
        font-size: 70.77px;
      }

      .cls-4 {
        stroke-width: 9px;
      }

      .cls-4, .cls-5, .cls-6, .cls-7, .cls-8 {
        fill-rule: evenodd;
      }

      .cls-11 {
        font-size: 53.08px;
      }

      .cls-12 {
        font-size: 14.15px;
      }

      .cls-6 {
        stroke-width: 5px;
      }

      .cls-7 {
        fill: none;
        stroke-width: 10px;
      }

      .cls-8 {
        stroke-width: 15px;
      }

      .cls-9 {
        stroke-width: 3px;
      }
    </style>
  </defs>
  <path class="cls-8" d="M447.52,242.55c-12.38,104.17-101.02,184.95-208.52,184.95S42.9,346.75,30.49,242.61c13.35-.52,24.01-11.5,24.01-24.98s-10.68-24.48-24.04-24.98C42.75,88.38,131.43,7.5,239,7.5s196.29,80.91,208.55,185.21c-12.9.99-23.05,11.77-23.05,24.92s10.14,23.91,23.02,24.92Z"/>
  <path class="cls-4" d="M54.5,217.63c0,13.48-10.66,24.46-24.01,24.98-.33.01-.66.02-.99.02-13.81,0-25-11.19-25-25s11.19-25,25-25c.32,0,.64.01.96.02,13.36.5,24.04,11.49,24.04,24.98Z"/>
  <path class="cls-4" d="M474.5,217.63c0,13.81-11.19,25-25,25-.67,0-1.33-.03-1.98-.08-12.88-1.01-23.02-11.78-23.02-24.92s10.15-23.93,23.05-24.92c.65-.05,1.29-.08,1.95-.08,13.81,0,25,11.19,25,25Z"/>
  <path class="cls-5" d="M379,161.63v132.5h-35v-27h-209v26h-35v-132.5c0-9.66,7.84-17.5,17.5-17.5,4.83,0,9.2,1.96,12.37,5.13,3.17,3.17,5.13,7.54,5.13,12.37v71.5h209v-70.5c0-9.66,7.84-17.5,17.5-17.5,4.83,0,9.2,1.96,12.37,5.13,3.17,3.17,5.13,7.54,5.13,12.37Z"/>
  <rect class="cls-3" x="135" y="207.13" width="50" height="25"/>
  <path class="cls-5" d="M210,184.63v47.5h-25v-47.5c0-6.9,5.6-12.5,12.5-12.5,3.45,0,6.58,1.4,8.84,3.66,2.26,2.26,3.66,5.39,3.66,8.84Z"/>
  <path class="cls-5" d="M344,217.58v14.55h-134v-50h98.55c19.58,0,35.45,15.87,35.45,35.45Z"/>
  <ellipse class="cls-9" cx="160.42" cy="191" rx="15.77" ry="24.58" transform="translate(-65.59 296.51) rotate(-75)"/>
  <text class="cls-2" transform="translate(148.98 100.41) scale(1.26 1)"><tspan class="cls-12" x="0" y="0" xml:space="preserve">             </tspan><tspan class="cls-10" x="55.2" y="0">Z</tspan><tspan class="cls-12" x="0" y="37.75" xml:space="preserve">       </tspan><tspan class="cls-11" x="29.72" y="37.75">Z</tspan><tspan class="cls-1"><tspan x="0" y="69.59" xml:space="preserve"> Z</tspan></tspan></text>
  <polyline class="cls-7" points="145.49 311.66 172.98 339.15 172.98 416.91"/>
  <polyline class="cls-7" points="333.49 312.88 306 340.37 306 418.13"/>
  <polyline class="cls-7" points="208.33 311.66 208.33 341.13 287.93 421.3"/>
  <polyline class="cls-7" points="271.18 311.66 271.18 341.13 191.42 421.89"/>
  <path class="cls-6" d="M155.49,311.66c0,5.39-4.26,9.78-9.6,9.99-.13,0-.26,0-.4,0-5.52,0-10-4.48-10-10s4.48-10,10-10c.13,0,.26,0,.38,0,5.34.2,9.62,4.6,9.62,9.99Z"/>
  <path class="cls-6" d="M344.02,311.66c0,5.39-4.26,9.78-9.6,9.99-.13,0-.26,0-.4,0-5.52,0-10-4.48-10-10s4.48-10,10-10c.13,0,.26,0,.38,0,5.34.2,9.62,4.6,9.62,9.99Z"/>
  <path class="cls-6" d="M218.33,311.66c0,5.39-4.26,9.78-9.6,9.99-.13,0-.26,0-.4,0-5.52,0-10-4.48-10-10s4.48-10,10-10c.13,0,.26,0,.38,0,5.34.2,9.62,4.6,9.62,9.99Z"/>
  <path class="cls-6" d="M281.18,311.66c0,5.39-4.26,9.78-9.6,9.99-.13,0-.26,0-.4,0-5.52,0-10-4.48-10-10s4.48-10,10-10c.13,0,.26,0,.38,0,5.34.2,9.62,4.6,9.62,9.99Z"/>
</svg>